<?xml version="1.0" encoding="UTF-8" standalone="no"?><svg xmlns="http://www.w3.org/2000/svg" xmlns:xlink="http://www.w3.org/1999/xlink" contentScriptType="application/ecmascript" contentStyleType="text/css" height="996.7617px" preserveAspectRatio="none" style="width:480px;height:996px;" version="1.1" viewBox="0 0 480 996" width="480.5699px" zoomAndPan="magnify"><defs><filter height="300%" id="f19wdhiq9ptsnt" width="300%" x="-1" y="-1"><feGaussianBlur result="blurOut" stdDeviation="1.2953367875647668"/><feColorMatrix in="blurOut" result="blurOut2" type="matrix" values="0 0 0 0 0 0 0 0 0 0 0 0 0 0 0 0 0 0 .4 0"/><feOffset dx="2.5906735751295336" dy="2.5906735751295336" in="blurOut2" result="blurOut3"/><feBlend in="SourceGraphic" in2="blurOut3" mode="normal"/></filter></defs><g><!--MD5=[2e64abc8897202a067f5c13c4eb025c5]
cluster Inicializacion--><rect fill="#FEFECE" filter="url(#f19wdhiq9ptsnt)" height="457.2539" rx="8.0959" ry="8.0959" style="stroke: #A80036; stroke-width: 0.971502590673575;" width="453.3679" x="19.4301" y="53.7565"/><rect fill="#FFFFFF" height="436.3362" rx="8.0959" ry="8.0959" style="stroke: #FFFFFF; stroke-width: 0.6476683937823834;" width="449.4819" x="21.3731" y="72.7311"/><line style="stroke: #A80036; stroke-width: 0.971502590673575;" x1="19.4301" x2="472.7979" y1="70.7881" y2="70.7881"/><text fill="#000000" font-family="sans-serif" font-size="9.0674" lengthAdjust="spacingAndGlyphs" textLength="55.0518" x="218.5881" y="64.7637">Inicializacion</text><ellipse cx="249.3523" cy="88.0829" fill="#000000" filter="url(#f19wdhiq9ptsnt)" rx="6.4767" ry="6.4767" style="stroke: none; stroke-width: 0.6476683937823834;"/><rect fill="#FEFECE" filter="url(#f19wdhiq9ptsnt)" height="32.3834" rx="8.0959" ry="8.0959" style="stroke: #A80036; stroke-width: 0.971502590673575;" width="66.7098" x="215.9974" y="144.4301"/><line style="stroke: #A80036; stroke-width: 0.971502590673575;" x1="215.9974" x2="282.7073" y1="161.4617" y2="161.4617"/><text fill="#000000" font-family="sans-serif" font-size="9.0674" lengthAdjust="spacingAndGlyphs" textLength="53.7565" x="222.4741" y="156.0849">UbuntuStart</text><rect fill="#FEFECE" filter="url(#f19wdhiq9ptsnt)" height="32.3834" rx="8.0959" ry="8.0959" style="stroke: #A80036; stroke-width: 0.971502590673575;" width="68.0052" x="215.3497" y="226.6839"/><line style="stroke: #A80036; stroke-width: 0.971502590673575;" x1="215.3497" x2="283.3549" y1="243.7156" y2="243.7156"/><text fill="#000000" font-family="sans-serif" font-size="9.0674" lengthAdjust="spacingAndGlyphs" textLength="55.0518" x="221.8264" y="238.3388">SnapStarted</text><rect fill="#FEFECE" filter="url(#f19wdhiq9ptsnt)" height="32.3834" rx="8.0959" ry="8.0959" style="stroke: #A80036; stroke-width: 0.971502590673575;" width="77.7202" x="210.4922" y="308.9378"/><line style="stroke: #A80036; stroke-width: 0.971502590673575;" x1="210.4922" x2="288.2124" y1="325.9695" y2="325.9695"/><text fill="#000000" font-family="sans-serif" font-size="9.0674" lengthAdjust="spacingAndGlyphs" textLength="64.7668" x="216.9689" y="320.5927">DockerStarted</text><rect fill="#FEFECE" filter="url(#f19wdhiq9ptsnt)" height="32.3834" rx="8.0959" ry="8.0959" style="stroke: #A80036; stroke-width: 0.971502590673575;" width="87.4352" x="40.4793" y="391.1917"/><line style="stroke: #A80036; stroke-width: 0.971502590673575;" x1="40.4793" x2="127.9145" y1="408.2234" y2="408.2234"/><text fill="#000000" font-family="sans-serif" font-size="9.0674" lengthAdjust="spacingAndGlyphs" textLength="74.4819" x="46.956" y="402.8466">OpenHabStarted</text><rect fill="#FEFECE" filter="url(#f19wdhiq9ptsnt)" height="32.3834" rx="8.0959" ry="8.0959" style="stroke: #A80036; stroke-width: 0.971502590673575;" width="93.9119" x="150.5829" y="391.1917"/><line style="stroke: #A80036; stroke-width: 0.971502590673575;" x1="150.5829" x2="244.4948" y1="408.2234" y2="408.2234"/><text fill="#000000" font-family="sans-serif" font-size="9.0674" lengthAdjust="spacingAndGlyphs" textLength="80.9585" x="157.0596" y="402.8466">MqttServerStarted</text><rect fill="#FEFECE" filter="url(#f19wdhiq9ptsnt)" height="32.3834" rx="8.0959" ry="8.0959" style="stroke: #A80036; stroke-width: 0.971502590673575;" width="80.3109" x="267.487" y="391.1917"/><line style="stroke: #A80036; stroke-width: 0.971502590673575;" x1="267.487" x2="347.7979" y1="408.2234" y2="408.2234"/><text fill="#000000" font-family="sans-serif" font-size="9.0674" lengthAdjust="spacingAndGlyphs" textLength="67.3575" x="273.9637" y="402.8466">DeconzStarted</text><rect fill="#FEFECE" filter="url(#f19wdhiq9ptsnt)" height="32.3834" rx="8.0959" ry="8.0959" style="stroke: #A80036; stroke-width: 0.971502590673575;" width="86.7876" x="370.4663" y="391.1917"/><line style="stroke: #A80036; stroke-width: 0.971502590673575;" x1="370.4663" x2="457.2539" y1="408.2234" y2="408.2234"/><text fill="#000000" font-family="sans-serif" font-size="9.0674" lengthAdjust="spacingAndGlyphs" textLength="73.8342" x="376.943" y="402.8466">TuyaMqttStarted</text><rect fill="#FEFECE" filter="url(#f19wdhiq9ptsnt)" height="32.3834" rx="8.0959" ry="8.0959" style="stroke: #A80036; stroke-width: 0.971502590673575;" width="93.2642" x="205.9585" y="463.0829"/><line style="stroke: #A80036; stroke-width: 0.971502590673575;" x1="205.9585" x2="299.2228" y1="480.1146" y2="480.1146"/><text fill="#000000" font-family="sans-serif" font-size="9.0674" lengthAdjust="spacingAndGlyphs" textLength="80.3109" x="212.4352" y="474.7378">AllModulesStarted</text><ellipse cx="24.6114" cy="11.658" fill="#000000" filter="url(#f19wdhiq9ptsnt)" rx="6.4767" ry="6.4767" style="stroke: none; stroke-width: 0.6476683937823834;"/><rect fill="#FEFECE" filter="url(#f19wdhiq9ptsnt)" height="432.8348" rx="8.0959" ry="8.0959" style="stroke: #A80036; stroke-width: 0.971502590673575;" width="412.5648" x="46.3083" y="556.9948"/><rect fill="#FFFFFF" height="411.9171" rx="8.0959" ry="8.0959" style="stroke: #FFFFFF; stroke-width: 0.6476683937823834;" width="408.6788" x="48.2513" y="575.9695"/><line style="stroke: #A80036; stroke-width: 0.971502590673575;" x1="46.3083" x2="458.8731" y1="574.0265" y2="574.0265"/><text fill="#000000" font-family="sans-serif" font-size="9.0674" lengthAdjust="spacingAndGlyphs" textLength="45.9845" x="229.5984" y="568.6497">Operacion</text><ellipse cx="304.9288" cy="588.9228" fill="#000000" filter="url(#f19wdhiq9ptsnt)" rx="6.4767" ry="6.4767" style="stroke: none; stroke-width: 0.6476683937823834;"/><rect fill="#FEFECE" filter="url(#f19wdhiq9ptsnt)" height="32.3834" rx="8.0959" ry="8.0959" style="stroke: #A80036; stroke-width: 0.971502590673575;" width="130.1813" x="114.8381" y="716.8374"/><line style="stroke: #A80036; stroke-width: 0.971502590673575;" x1="114.8381" x2="245.0194" y1="733.869" y2="733.869"/><text fill="#000000" font-family="sans-serif" font-size="9.0674" lengthAdjust="spacingAndGlyphs" textLength="117.228" x="121.3148" y="728.4922">EscuchandoProgramacion</text><rect fill="#FEFECE" filter="url(#f19wdhiq9ptsnt)" height="32.3834" rx="8.0959" ry="8.0959" style="stroke: #A80036; stroke-width: 0.971502590673575;" width="106.2176" x="126.8199" y="881.0213"/><line style="stroke: #A80036; stroke-width: 0.971502590673575;" x1="126.8199" x2="233.0376" y1="898.0529" y2="898.0529"/><text fill="#000000" font-family="sans-serif" font-size="9.0674" lengthAdjust="spacingAndGlyphs" textLength="93.2642" x="133.2966" y="892.6762">EvaluarProgramacion</text><rect fill="#FEFECE" filter="url(#f19wdhiq9ptsnt)" height="32.3834" rx="8.0959" ry="8.0959" style="stroke: #A80036; stroke-width: 0.971502590673575;" width="117.8756" x="181.2241" y="947.7311"/><line style="stroke: #A80036; stroke-width: 0.971502590673575;" x1="181.2241" x2="299.0997" y1="964.7628" y2="964.7628"/><text fill="#000000" font-family="sans-serif" font-size="9.0674" lengthAdjust="spacingAndGlyphs" textLength="104.9223" x="187.7008" y="959.386">AlmacenaProgramacion</text><rect fill="#FEFECE" filter="url(#f19wdhiq9ptsnt)" height="227.5239" rx="8.0959" ry="8.0959" style="stroke: #A80036; stroke-width: 0.971502590673575;" width="180.6995" x="256.6775" y="619.3633"/><rect fill="#FFFFFF" height="206.6062" rx="8.0959" ry="8.0959" style="stroke: #FFFFFF; stroke-width: 0.6476683937823834;" width="176.8135" x="258.6205" y="638.3379"/><line style="stroke: #A80036; stroke-width: 0.971502590673575;" x1="256.6775" x2="437.3769" y1="636.3949" y2="636.3949"/><text fill="#000000" font-family="sans-serif" font-size="9.0674" lengthAdjust="spacingAndGlyphs" textLength="90.6736" x="301.6904" y="631.0181">AplicarProgramacion</text><rect fill="#FEFECE" filter="url(#f19wdhiq9ptsnt)" height="32.5555" rx="8.0959" ry="8.0959" style="stroke: #A80036; stroke-width: 0.971502590673575;" width="82.9016" x="301.6904" y="681.7317"/><line style="stroke: #A80036; stroke-width: 0.971502590673575;" x1="301.6904" x2="384.592" y1="698.7634" y2="698.7634"/><text fill="#000000" font-family="sans-serif" font-size="9.0674" lengthAdjust="spacingAndGlyphs" textLength="69.9482" x="308.1671" y="693.3866">Cada 5 minutos</text><text fill="#000000" font-family="sans-serif" font-size="7.772" lengthAdjust="spacingAndGlyphs" textLength="32.3834" x="304.9288" y="709.2159">Timeout</text><ellipse cx="343.1412" cy="651.2913" fill="#000000" filter="url(#f19wdhiq9ptsnt)" rx="6.4767" ry="6.4767" style="stroke: none; stroke-width: 0.6476683937823834;"/><rect fill="#FEFECE" filter="url(#f19wdhiq9ptsnt)" height="32.3834" rx="8.0959" ry="8.0959" style="stroke: #A80036; stroke-width: 0.971502590673575;" width="93.9119" x="263.8018" y="748.4415"/><line style="stroke: #A80036; stroke-width: 0.971502590673575;" x1="263.8018" x2="357.7137" y1="765.4732" y2="765.4732"/><text fill="#000000" font-family="sans-serif" font-size="9.0674" lengthAdjust="spacingAndGlyphs" textLength="80.9585" x="270.2785" y="760.0964">LeerProgramacion</text><rect fill="#FEFECE" filter="url(#f19wdhiq9ptsnt)" height="32.3834" rx="8.0959" ry="8.0959" style="stroke: #A80036; stroke-width: 0.971502590673575;" width="101.0363" x="314.6438" y="804.7887"/><line style="stroke: #A80036; stroke-width: 0.971502590673575;" x1="314.6438" x2="415.6801" y1="821.8204" y2="821.8204"/><text fill="#000000" font-family="sans-serif" font-size="9.0674" lengthAdjust="spacingAndGlyphs" textLength="88.0829" x="321.1205" y="816.4436">EnviarProgramacion</text><!--MD5=[86ebb4704974b49964379a6890fa7b2d]
link *start*AplicarProgramacion to long1--><path d="M343.1412,657.8651 C343.1412,663.0724 343.1412,670.9351 343.1412,678.2667 " fill="none" id="*start*AplicarProgramacion-&gt;long1" style="stroke: #A80036; stroke-width: 0.6476683937823834;"/><polygon fill="#A80036" points="343.1412,681.5892,345.7319,675.7602,343.1412,678.3509,340.5505,675.7602,343.1412,681.5892" style="stroke: #A80036; stroke-width: 0.6476683937823834;"/><!--MD5=[b33af875327045e63daee570751043b9]
link long1 to LeerProgramacion--><path d="M301.5933,713.2991 C296.7487,716.6734 292.4547,720.7861 289.3847,725.7732 C285.4469,732.1786 287.7396,739.3353 292.0402,745.7084 " fill="none" id="long1-&gt;LeerProgramacion" style="stroke: #A80036; stroke-width: 0.6476683937823834;"/><polygon fill="#A80036" points="293.9896,748.3833,292.6537,742.1459,292.0838,745.7651,288.4647,745.1952,293.9896,748.3833" style="stroke: #A80036; stroke-width: 0.6476683937823834;"/><text fill="#000000" font-family="sans-serif" font-size="8.4197" lengthAdjust="spacingAndGlyphs" textLength="98.4456" x="290.0324" y="734.2362">5 minutos transcurridos</text><!--MD5=[e9b4b0ecd0828bd03c60d2a4a734dcd4]
link LeerProgramacion to EnviarProgramacion--><path d="M326.2047,780.9092 C332.8044,787.5931 340.557,795.4364 347.3964,802.3535 " fill="none" id="LeerProgramacion-&gt;EnviarProgramacion" style="stroke: #A80036; stroke-width: 0.6476683937823834;"/><polygon fill="#A80036" points="349.6762,804.6656,347.4224,798.6983,347.4002,802.362,343.7365,802.3397,349.6762,804.6656" style="stroke: #A80036; stroke-width: 0.6476683937823834;"/><!--MD5=[9378d0ecfe3ec373cfb8900e64514ee9]
link EnviarProgramacion to long1--><path d="M375.8679,804.6462 C387.7785,785.0672 403.5557,751.0776 389.1256,725.7732 C387.1179,722.2498 384.4495,719.1346 381.4119,716.3949 " fill="none" id="EnviarProgramacion-&gt;long1" style="stroke: #A80036; stroke-width: 0.6476683937823834;"/><polygon fill="#A80036" points="378.7759,714.1734,381.5744,719.9055,381.2561,716.2556,384.906,715.9373,378.7759,714.1734" style="stroke: #A80036; stroke-width: 0.6476683937823834;"/><!--MD5=[5e7ea5ad3d8f7d4a52f372c6c27ba9ce]
link *start*Operacion to EscuchandoProgramacion--><path d="M298.9119,591.6884 C288.1671,595.7104 265.4016,605.3153 250.5246,619.3633 C221.2306,647.0252 199.1192,689.3697 187.9793,713.6055 " fill="none" id="*start*Operacion-&gt;EscuchandoProgramacion" style="stroke: #A80036; stroke-width: 0.6476683937823834;"/><polygon fill="#A80036" points="186.5415,716.7596,191.312,712.5251,187.8815,713.8116,186.5951,710.3811,186.5415,716.7596" style="stroke: #A80036; stroke-width: 0.6476683937823834;"/><!--MD5=[a3efae7d15e599015e2e08c45b6d6c8f]
link *start*Operacion to AplicarProgramacion--><path d="M306.6321,595.3477 C308.0052,599.9915 310.1166,607.1677 312.6813,615.8594 " fill="none" id="*start*Operacion-&gt;AplicarProgramacion" style="stroke: #A80036; stroke-width: 0.6476683937823834;"/><polygon fill="#A80036" points="313.6399,619.1236,314.4775,612.8001,312.7246,616.0173,309.5074,614.2645,313.6399,619.1236" style="stroke: #A80036; stroke-width: 0.6476683937823834;"/><!--MD5=[9f71234e8cb2de053be267ecf9f5f8f6]
link EscuchandoProgramacion to EvaluarProgramacion--><path d="M148.6852,749.2985 C103.0117,774.1754 27.1179,824.577 62.7008,869.3633 C70.5699,879.2661 97.215,885.8853 123.1153,890.1146 " fill="none" id="EscuchandoProgramacion-&gt;EvaluarProgramacion" style="stroke: #A80036; stroke-width: 0.6476683937823834;"/><polygon fill="#A80036" points="126.5997,890.6651,121.2497,887.1914,123.4016,890.1567,120.4363,892.3085,126.5997,890.6651" style="stroke: #A80036; stroke-width: 0.6476683937823834;"/><text fill="#000000" font-family="sans-serif" font-size="8.4197" lengthAdjust="spacingAndGlyphs" textLength="101.6839" x="63.3484" y="866.8159">EvProgramacionRecibida</text><!--MD5=[729fd63fa745f80399a221c4f57a27f2]
link EvaluarProgramacion to AlmacenaProgramacion--><path d="M179.4301,913.4436 C179.9223,920.9177 181.658,929.6288 186.4054,936.0731 C189.0803,939.6936 192.3705,942.8671 195.9974,945.6456 " fill="none" id="EvaluarProgramacion-&gt;AlmacenaProgramacion" style="stroke: #A80036; stroke-width: 0.6476683937823834;"/><polygon fill="#A80036" points="198.8342,947.6858,195.6114,942.181,196.2041,945.7966,192.5886,946.3893,198.8342,947.6858" style="stroke: #A80036; stroke-width: 0.6476683937823834;"/><text fill="#000000" font-family="sans-serif" font-size="8.4197" lengthAdjust="spacingAndGlyphs" textLength="102.9793" x="187.0531" y="933.5258">EvProgramacionCorrecta</text><!--MD5=[c1467ae60baa1c18e1374254dd058dca]
link EvaluarProgramacion to EscuchandoProgramacion--><path d="M179.9288,880.9954 C179.9288,850.9889 179.9288,785.27 179.9288,752.7182 " fill="none" id="EvaluarProgramacion-&gt;EscuchandoProgramacion" style="stroke: #A80036; stroke-width: 0.6476683937823834;"/><polygon fill="#A80036" points="179.9288,749.292,177.3381,755.121,179.9288,752.5304,182.5194,755.121,179.9288,749.292" style="stroke: #A80036; stroke-width: 0.6476683937823834;"/><text fill="#000000" font-family="sans-serif" font-size="8.4197" lengthAdjust="spacingAndGlyphs" textLength="108.8083" x="180.5764" y="866.8159">EvProgramacionIncorrecta</text><!--MD5=[ed3f97b08f1b3f96d22848d9c2b83fcd]
link AlmacenaProgramacion to EscuchandoProgramacion--><path d="M279.9741,947.6405 C284.2228,944.428 287.9728,940.6068 290.6801,936.0731 C308.3938,906.4164 311.4249,885.976 290.6801,858.3529 C279.5207,843.4954 265.3497,857.906 250.5246,846.6949 C218.0311,822.1223 196.8394,777.8801 186.7746,752.6534 " fill="none" id="AlmacenaProgramacion-&gt;EscuchandoProgramacion" style="stroke: #A80036; stroke-width: 0.6476683937823834;"/><polygon fill="#A80036" points="185.4858,749.3762,185.2047,755.7488,186.6693,752.3905,190.0276,753.8552,185.4858,749.3762" style="stroke: #A80036; stroke-width: 0.6476683937823834;"/><!--MD5=[eb1bbff90e88cd4a7cb2cf8ab8bb1922]
link *start to Inicializacion--><path d="M24.6114,18.1995 C24.6114,22.5583 24.6114,28.9649 24.6114,36.1475 C24.6114,39.7388 24.6114,43.524 24.6114,47.3442 C24.6114,49.2543 24.6114,51.1732 24.6114,53.0809 C24.6114,53.2001 24.6114,53.3193 24.6114,53.4385 " fill="none" id="*start-&gt;Inicializacion" style="stroke: #A80036; stroke-width: 0.6476683937823834;"/><polygon fill="#A80036" points="24.6114,53.4385,27.2021,47.6095,24.6114,50.2001,22.0207,47.6095,24.6114,53.4385" style="stroke: #A80036; stroke-width: 0.6476683937823834;"/><!--MD5=[0cceaf5216f2c6893d9854764e9e6979]
link *start*Inicializacion to UbuntuStart--><path d="M249.3523,94.5596 C249.3523,104.5725 249.3523,125.4404 249.3523,140.9326 " fill="none" id="*start*Inicializacion-&gt;UbuntuStart" style="stroke: #A80036; stroke-width: 0.6476683937823834;"/><polygon fill="#A80036" points="249.3523,144.3459,251.943,138.5168,249.3523,141.1075,246.7617,138.5168,249.3523,144.3459" style="stroke: #A80036; stroke-width: 0.6476683937823834;"/><text fill="#000000" font-family="sans-serif" font-size="8.4197" lengthAdjust="spacingAndGlyphs" textLength="115.285" x="250" y="122.4527">SistemaRecibeAlimentacion</text><!--MD5=[1d5c10f8f9e2d1c523d623250c016383]
link UbuntuStart to SnapStarted--><path d="M249.3523,176.8782 C249.3523,190.149 249.3523,209.2487 249.3523,223.3679 " fill="none" id="UbuntuStart-&gt;SnapStarted" style="stroke: #A80036; stroke-width: 0.6476683937823834;"/><polygon fill="#A80036" points="249.3523,226.6645,251.943,220.8355,249.3523,223.4262,246.7617,220.8355,249.3523,226.6645" style="stroke: #A80036; stroke-width: 0.6476683937823834;"/><text fill="#000000" font-family="sans-serif" font-size="8.4197" lengthAdjust="spacingAndGlyphs" textLength="42.0984" x="250" y="204.7065">SnapStart</text><!--MD5=[a2b46aeeb7a0314dd9e38af930b861a4]
link SnapStarted to DockerStarted--><path d="M249.3523,259.1321 C249.3523,272.4028 249.3523,291.5026 249.3523,305.6218 " fill="none" id="SnapStarted-&gt;DockerStarted" style="stroke: #A80036; stroke-width: 0.6476683937823834;"/><polygon fill="#A80036" points="249.3523,308.9184,251.943,303.0894,249.3523,305.6801,246.7617,303.0894,249.3523,308.9184" style="stroke: #A80036; stroke-width: 0.6476683937823834;"/><text fill="#000000" font-family="sans-serif" font-size="8.4197" lengthAdjust="spacingAndGlyphs" textLength="49.8705" x="250" y="286.9604">DockerStart</text><!--MD5=[02f9f0c12e8c7c537921f8a4f930b57b]
link DockerStarted to OpenHabStarted--><path d="M217.5065,341.386 C189.2358,355.2461 148.0052,375.4598 118.899,389.728 " fill="none" id="DockerStarted-&gt;OpenHabStarted" style="stroke: #A80036; stroke-width: 0.6476683937823834;"/><polygon fill="#A80036" points="115.9456,391.1723,122.3192,390.9152,118.8494,389.7389,120.0257,386.2691,115.9456,391.1723" style="stroke: #A80036; stroke-width: 0.6476683937823834;"/><text fill="#000000" font-family="sans-serif" font-size="8.4197" lengthAdjust="spacingAndGlyphs" textLength="33.6788" x="176.8135" y="369.2143">OHStart</text><!--MD5=[1b8ea7a885ef4b6c7ac8b4b29511b062]
link DockerStarted to MqttServerStarted--><path d="M237.9339,341.4378 C233.6852,347.4093 228.8925,354.3264 224.7409,360.7513 C218.9961,369.6373 212.9663,379.7409 208.0505,388.206 " fill="none" id="DockerStarted-&gt;MqttServerStarted" style="stroke: #A80036; stroke-width: 0.6476683937823834;"/><polygon fill="#A80036" points="206.4313,391.0104,211.59,387.2584,208.051,388.2061,207.1033,384.6671,206.4313,391.0104" style="stroke: #A80036; stroke-width: 0.6476683937823834;"/><text fill="#000000" font-family="sans-serif" font-size="8.4197" lengthAdjust="spacingAndGlyphs" textLength="39.5078" x="225.3886" y="369.2143">MqttStart</text><!--MD5=[f79b55a8543e671a63e4b5f6b5ed2fa5]
link DockerStarted to DeconzStarted--><path d="M260.5894,341.386 C270.2655,354.8251 284.2422,374.2358 294.4495,388.4132 " fill="none" id="DockerStarted-&gt;DeconzStarted" style="stroke: #A80036; stroke-width: 0.6476683937823834;"/><polygon fill="#A80036" points="296.4378,391.1723,295.1268,384.9297,294.5425,388.5465,290.9256,387.9622,296.4378,391.1723" style="stroke: #A80036; stroke-width: 0.6476683937823834;"/><text fill="#000000" font-family="sans-serif" font-size="8.4197" lengthAdjust="spacingAndGlyphs" textLength="51.8135" x="282.3834" y="369.2143">DeconzStart</text><!--MD5=[12ff3ac33a91c465e910b6129868722e]
link DockerStarted to TuyaMqttStarted--><path d="M288.4326,339.0091 C304.6891,344.987 323.5687,352.5453 340.0259,360.7513 C356.7487,369.0933 374.5596,380.1101 388.4974,389.2746 " fill="none" id="DockerStarted-&gt;TuyaMqttStarted" style="stroke: #A80036; stroke-width: 0.6476683937823834;"/><polygon fill="#A80036" points="391.2306,391.0816,387.7963,385.7062,388.529,389.296,384.9393,390.0287,391.2306,391.0816" style="stroke: #A80036; stroke-width: 0.6476683937823834;"/><text fill="#000000" font-family="sans-serif" font-size="8.4197" lengthAdjust="spacingAndGlyphs" textLength="60.8808" x="359.456" y="369.2143">ContainerStart</text><!--MD5=[749177c1abc42d2637ea59e03ca378b9]
link OpenHabStarted to AllModulesStarted--><path d="M121.3601,423.614 C148.2189,434.8705 184.4819,450.0712 212.079,461.6451 " fill="none" id="OpenHabStarted-&gt;AllModulesStarted" style="stroke: #A80036; stroke-width: 0.6476683937823834;"/><polygon fill="#A80036" points="215.2332,462.9663,210.854,458.3282,212.2453,461.7175,208.856,463.1088,215.2332,462.9663" style="stroke: #A80036; stroke-width: 0.6476683937823834;"/><!--MD5=[c8e27dbdbf8523f0e372d4330f459fb3]
link MqttServerStarted to AllModulesStarted--><path d="M209.7539,423.6982 C218.1671,434.4819 229.3718,448.8536 238.2124,460.1878 " fill="none" id="MqttServerStarted-&gt;AllModulesStarted" style="stroke: #A80036; stroke-width: 0.6476683937823834;"/><polygon fill="#A80036" points="240.408,463.0052,238.8697,456.8147,238.418,460.4505,234.7821,459.9988,240.408,463.0052" style="stroke: #A80036; stroke-width: 0.6476683937823834;"/><!--MD5=[9cd08f0127c3c21da42c8113df40e551]
link DeconzStarted to AllModulesStarted--><path d="M295.4275,423.6982 C287.0142,434.4819 275.8096,448.8536 266.9689,460.1878 " fill="none" id="DeconzStarted-&gt;AllModulesStarted" style="stroke: #A80036; stroke-width: 0.6476683937823834;"/><polygon fill="#A80036" points="264.7733,463.0052,270.3992,459.9988,266.7634,460.4505,266.3117,456.8147,264.7733,463.0052" style="stroke: #A80036; stroke-width: 0.6476683937823834;"/><!--MD5=[45bcfde0bc25cc3c55e97352cf3e072e]
link TuyaMqttStarted to AllModulesStarted--><path d="M378.2707,423.614 C352.5972,434.851 317.9598,450.013 291.5479,461.5738 " fill="none" id="TuyaMqttStarted-&gt;AllModulesStarted" style="stroke: #A80036; stroke-width: 0.6476683937823834;"/><polygon fill="#A80036" points="288.3679,462.9663,294.7465,463.0107,291.3362,461.6717,292.6752,458.2614,288.3679,462.9663" style="stroke: #A80036; stroke-width: 0.6476683937823834;"/><!--MD5=[5e448bf209a90c936dd579ce5a42d47c]
link AllModulesStarted to Operacion--><path d="M252.5907,495.6606 C252.5907,508.9054 252.5907,529.5142 252.5907,553.6528 " fill="none" id="AllModulesStarted-&gt;Operacion" style="stroke: #A80036; stroke-width: 0.6476683937823834;"/><polygon fill="#A80036" points="252.5907,556.9301,255.1813,551.101,252.5907,553.6917,250,551.101,252.5907,556.9301" style="stroke: #A80036; stroke-width: 0.6476683937823834;"/><text fill="#000000" font-family="sans-serif" font-size="8.4197" lengthAdjust="spacingAndGlyphs" textLength="76.4249" x="253.2383" y="535.0174">EvListoParaOperar</text><!--MD5=[c1e881b21e896d70f3fc193ebd1390ef]
@startuml
scale 500 width
[*] - -> Inicializacion

state Inicializacion {
  [*] - -> UbuntuStart: SistemaRecibeAlimentacion
  UbuntuStart - -> SnapStarted : SnapStart
  SnapStarted - -> DockerStarted : DockerStart
  DockerStarted - -> OpenHabStarted: OHStart
  DockerStarted - -> MqttServerStarted: MqttStart
  DockerStarted - -> DeconzStarted: DeconzStart
  DockerStarted - -> TuyaMqttStarted: ContainerStart
  OpenHabStarted - -> AllModulesStarted
  MqttServerStarted - -> AllModulesStarted
  DeconzStarted - -> AllModulesStarted
  TuyaMqttStarted - -> AllModulesStarted
  AllModulesStarted - -> Operacion: EvListoParaOperar
}

state Operacion {
  [*] - -> EscuchandoProgramacion
  [*] - -> AplicarProgramacion
  EscuchandoProgramacion - -> EvaluarProgramacion: EvProgramacionRecibida
  EvaluarProgramacion - -> AlmacenaProgramacion: EvProgramacionCorrecta
  EvaluarProgramacion - -> EscuchandoProgramacion: EvProgramacionIncorrecta
  AlmacenaProgramacion - -> EscuchandoProgramacion

  state AplicarProgramacion {
    state "Cada 5 minutos" as long1
    long1 : Timeout
    [*] - -> long1
    long1 - ->  LeerProgramacion: 5 minutos transcurridos
    LeerProgramacion - -> EnviarProgramacion
    EnviarProgramacion - -> long1
  }
}
@enduml

PlantUML version 1.2020.02(Sun Mar 01 10:22:07 GMT 2020)
(GPL source distribution)
Java Runtime: OpenJDK Runtime Environment
JVM: OpenJDK 64-Bit Server VM
Java Version: 11.0.9+11-Ubuntu-0ubuntu1
Operating System: Linux
Default Encoding: ANSI_X3.4-1968
Language: en
Country: US
--></g></svg>