<?xml version="1.0" encoding="UTF-8" standalone="no"?><svg xmlns="http://www.w3.org/2000/svg" xmlns:xlink="http://www.w3.org/1999/xlink" contentScriptType="application/ecmascript" contentStyleType="text/css" height="311px" preserveAspectRatio="none" style="width:351px;height:311px;" version="1.1" viewBox="0 0 351 311" width="351px" zoomAndPan="magnify"><defs><filter height="300%" id="fysxappovherz" width="300%" x="-1" y="-1"><feGaussianBlur result="blurOut" stdDeviation="2.0"/><feColorMatrix in="blurOut" result="blurOut2" type="matrix" values="0 0 0 0 0 0 0 0 0 0 0 0 0 0 0 0 0 0 .4 0"/><feOffset dx="4.0" dy="4.0" in="blurOut2" result="blurOut3"/><feBlend in="SourceGraphic" in2="blurOut3" mode="normal"/></filter></defs><g><!--MD5=[26bee4b96198a5bdfb6d5d3655ed4e56]
cluster Casa--><rect fill="#FFFFFF" filter="url(#fysxappovherz)" height="276" style="stroke: #000000; stroke-width: 1.5;" width="156" x="184" y="24"/><text fill="#000000" font-family="sans-serif" font-size="14" font-weight="bold" lengthAdjust="spacingAndGlyphs" textLength="38" x="243" y="38.9951">Casa</text><ellipse cx="261.8742" cy="73.7748" fill="#FEFECE" filter="url(#fysxappovherz)" rx="61.8742" ry="14.7748" style="stroke: #A80036; stroke-width: 1.5;"/><text fill="#000000" font-family="sans-serif" font-size="14" lengthAdjust="spacingAndGlyphs" textLength="85" x="219.3742" y="78.4233">Fabricante 1</text><ellipse cx="261.8742" cy="138.7748" fill="#FEFECE" filter="url(#fysxappovherz)" rx="61.8742" ry="14.7748" style="stroke: #A80036; stroke-width: 1.5;"/><text fill="#000000" font-family="sans-serif" font-size="14" lengthAdjust="spacingAndGlyphs" textLength="85" x="219.3742" y="143.4233">Fabricante 2</text><ellipse cx="261.8742" cy="203.7748" fill="#FEFECE" filter="url(#fysxappovherz)" rx="61.8742" ry="14.7748" style="stroke: #A80036; stroke-width: 1.5;"/><text fill="#000000" font-family="sans-serif" font-size="14" lengthAdjust="spacingAndGlyphs" textLength="85" x="219.3742" y="208.4233">Fabricante 3</text><ellipse cx="261.8742" cy="268.7748" fill="#FEFECE" filter="url(#fysxappovherz)" rx="61.8742" ry="14.7748" style="stroke: #A80036; stroke-width: 1.5;"/><text fill="#000000" font-family="sans-serif" font-size="14" lengthAdjust="spacingAndGlyphs" textLength="85" x="219.3742" y="273.4233">Fabricante 4</text><!--MD5=[db756db308cf6ff8cfeeb51570136b75]
entity fc--><ellipse cx="46.5" cy="135" fill="#FEFECE" filter="url(#fysxappovherz)" rx="8" ry="8" style="stroke: #A80036; stroke-width: 1.5;"/><path d="M46.5,143 L46.5,170 M33.5,151 L59.5,151 M46.5,170 L33.5,185 M46.5,170 L59.5,185 " fill="none" filter="url(#fysxappovherz)" style="stroke: #A80036; stroke-width: 1.5;"/><text fill="#000000" font-family="sans-serif" font-size="14" lengthAdjust="spacingAndGlyphs" textLength="81" x="6" y="203.4951">Controlador</text><!--MD5=[e9923d9fd4075a960db40f09654be8d8]
link fc to UC1--><path d="M87.29,141.51 C96.85,136.07 107.15,130.57 117,126 C150.05,110.67 188.99,96.85 218.04,87.31 " fill="none" id="fc-&gt;UC1" style="stroke: #A80036; stroke-width: 1.0;"/><polygon fill="#A80036" points="222.98,85.7,213.1822,84.6982,218.2281,87.2554,215.6709,92.3013,222.98,85.7" style="stroke: #A80036; stroke-width: 1.0;"/><text fill="#000000" font-family="sans-serif" font-size="13" lengthAdjust="spacingAndGlyphs" textLength="45" x="120" y="102.0669">Zigbee</text><!--MD5=[4af9e8427d276ef4a9c3c7d33d3ba91c]
link fc to UC2--><path d="M87.16,160.98 C119.23,156.93 164.88,151.16 201.35,146.54 " fill="none" id="fc-&gt;UC2" style="stroke: #A80036; stroke-width: 1.0;"/><polygon fill="#A80036" points="206.66,145.87,197.2293,143.0305,201.6995,146.4972,198.2328,150.9673,206.66,145.87" style="stroke: #A80036; stroke-width: 1.0;"/><text fill="#000000" font-family="sans-serif" font-size="13" lengthAdjust="spacingAndGlyphs" textLength="45" x="120" y="147.0669">Zigbee</text><!--MD5=[71fba4d683dd6a260b46bc412e62a629]
link fc to UC3--><path d="M87.09,175.65 C96.84,177.88 107.27,180.14 117,182 C144.95,187.34 176.14,192.24 202.33,196.05 " fill="none" id="fc-&gt;UC3" style="stroke: #A80036; stroke-width: 1.0;"/><polygon fill="#A80036" points="207.5,196.8,199.1646,191.5539,202.5514,196.0849,198.0204,199.4717,207.5,196.8" style="stroke: #A80036; stroke-width: 1.0;"/><text fill="#000000" font-family="sans-serif" font-size="13" lengthAdjust="spacingAndGlyphs" textLength="49" x="118" y="178.0669">Z-Wave</text><!--MD5=[71fba4d683dd6a260b46bc412e62a629]
link fc to UC3--><path d="M87.06,200.76 C96.31,207.02 106.53,212.63 117,216 C149.28,226.4 187.62,222.47 216.62,216.45 " fill="none" id="fc-&gt;UC3-1" style="stroke: #A80036; stroke-width: 1.0;"/><polygon fill="#A80036" points="221.56,215.38,211.9176,213.3738,216.6731,216.4374,213.6095,221.1929,221.56,215.38" style="stroke: #A80036; stroke-width: 1.0;"/><text fill="#000000" font-family="sans-serif" font-size="13" lengthAdjust="spacingAndGlyphs" textLength="21" x="132" y="212.0669">Wifi</text><!--MD5=[625821340181724b7deb1e6f0f1af471]
@startuml
left to right direction
actor "Controlador" as fc
rectangle Casa {
  usecase "Fabricante 1" as UC1
  usecase "Fabricante 2" as UC2
  usecase "Fabricante 3" as UC3
  usecase "Fabricante 4" as UC4
} 
fc - -> UC1 : Zigbee 
fc - -> UC2 : Zigbee 
fc - -> UC3 : Z-Wave
fc - -> UC3 : Wifi 
@enduml

PlantUML version 1.2020.02(Sun Mar 01 10:22:07 GMT 2020)
(GPL source distribution)
Java Runtime: OpenJDK Runtime Environment
JVM: OpenJDK 64-Bit Server VM
Java Version: 11.0.9+11-Ubuntu-0ubuntu1
Operating System: Linux
Default Encoding: ANSI_X3.4-1968
Language: en
Country: US
--></g></svg>