<?xml version="1.0" encoding="UTF-8" standalone="no"?><svg xmlns="http://www.w3.org/2000/svg" xmlns:xlink="http://www.w3.org/1999/xlink" contentScriptType="application/ecmascript" contentStyleType="text/css" height="246px" preserveAspectRatio="none" style="width:290px;height:246px;" version="1.1" viewBox="0 0 290 246" width="290px" zoomAndPan="magnify"><defs><filter height="300%" id="f1t5orvm1fuieo" width="300%" x="-1" y="-1"><feGaussianBlur result="blurOut" stdDeviation="2.0"/><feColorMatrix in="blurOut" result="blurOut2" type="matrix" values="0 0 0 0 0 0 0 0 0 0 0 0 0 0 0 0 0 0 .4 0"/><feOffset dx="4.0" dy="4.0" in="blurOut2" result="blurOut3"/><feBlend in="SourceGraphic" in2="blurOut3" mode="normal"/></filter></defs><g><!--MD5=[bc938698130bec3721522f38f16e3aed]
cluster Restaurant--><rect fill="#FFFFFF" filter="url(#f1t5orvm1fuieo)" height="211" style="stroke: #000000; stroke-width: 1.5;" width="156" x="123" y="24"/><text fill="#000000" font-family="sans-serif" font-size="14" font-weight="bold" lengthAdjust="spacingAndGlyphs" textLength="86" x="158" y="38.9951">Restaurant</text><ellipse cx="201.1335" cy="74.0236" fill="#FEFECE" filter="url(#f1t5orvm1fuieo)" rx="46.1335" ry="14.5236" style="stroke: #A80036; stroke-width: 1.5;"/><text fill="#000000" font-family="sans-serif" font-size="14" lengthAdjust="spacingAndGlyphs" textLength="61" x="170.6335" y="78.6721">Eat Food</text><ellipse cx="200.8742" cy="138.7748" fill="#FEFECE" filter="url(#f1t5orvm1fuieo)" rx="61.8742" ry="14.7748" style="stroke: #A80036; stroke-width: 1.5;"/><text fill="#000000" font-family="sans-serif" font-size="14" lengthAdjust="spacingAndGlyphs" textLength="85" x="158.3742" y="143.4233">Pay for Food</text><ellipse cx="200.9558" cy="204.0236" fill="#FEFECE" filter="url(#f1t5orvm1fuieo)" rx="28.4558" ry="14.5236" style="stroke: #A80036; stroke-width: 1.5;"/><text fill="#000000" font-family="sans-serif" font-size="14" lengthAdjust="spacingAndGlyphs" textLength="36" x="182.9558" y="208.6721">Drink</text><!--MD5=[db756db308cf6ff8cfeeb51570136b75]
entity fc--><ellipse cx="42.5" cy="108" fill="#FEFECE" filter="url(#f1t5orvm1fuieo)" rx="8" ry="8" style="stroke: #A80036; stroke-width: 1.5;"/><path d="M42.5,116 L42.5,143 M29.5,124 L55.5,124 M42.5,143 L29.5,158 M42.5,143 L55.5,158 " fill="none" filter="url(#f1t5orvm1fuieo)" style="stroke: #A80036; stroke-width: 1.5;"/><text fill="#000000" font-family="sans-serif" font-size="14" lengthAdjust="spacingAndGlyphs" textLength="73" x="6" y="176.4951">Food Critic</text><!--MD5=[e9923d9fd4075a960db40f09654be8d8]
link fc to UC1--><path d="M79.28,121.87 C90.63,116.6 103.27,110.91 115,106 C131.35,99.16 149.72,92.16 165.19,86.46 " fill="none" id="fc-&gt;UC1" style="stroke: #A80036; stroke-width: 1.0;"/><polygon fill="#A80036" points="169.9,84.73,160.0742,84.0561,165.2027,86.4433,162.8155,91.5718,169.9,84.73" style="stroke: #A80036; stroke-width: 1.0;"/><!--MD5=[4af9e8427d276ef4a9c3c7d33d3ba91c]
link fc to UC2--><path d="M79.01,139 C95.17,139 114.83,139 133.57,139 " fill="none" id="fc-&gt;UC2" style="stroke: #A80036; stroke-width: 1.0;"/><polygon fill="#A80036" points="138.83,139,129.83,135,133.83,139,129.83,143,138.83,139" style="stroke: #A80036; stroke-width: 1.0;"/><!--MD5=[71fba4d683dd6a260b46bc412e62a629]
link fc to UC3--><path d="M79.35,155.47 C90.7,160.57 103.33,166.13 115,171 C134.06,178.96 155.78,187.38 172.49,193.72 " fill="none" id="fc-&gt;UC3" style="stroke: #A80036; stroke-width: 1.0;"/><polygon fill="#A80036" points="177.51,195.62,170.506,188.6958,172.8331,193.8519,167.677,196.179,177.51,195.62" style="stroke: #A80036; stroke-width: 1.0;"/><!--MD5=[26f640861ca296acb9912fcc5fc5d6a6]
@startuml
left to right direction
actor "Food Critic" as fc
rectangle Restaurant {
  usecase "Eat Food" as UC1
  usecase "Pay for Food" as UC2
  usecase "Drink" as UC3
}
fc - -> UC1
fc - -> UC2
fc - -> UC3
@enduml

PlantUML version 1.2020.02(Sun Mar 01 10:22:07 GMT 2020)
(GPL source distribution)
Java Runtime: OpenJDK Runtime Environment
JVM: OpenJDK 64-Bit Server VM
Java Version: 11.0.9+11-Ubuntu-0ubuntu1
Operating System: Linux
Default Encoding: ANSI_X3.4-1968
Language: en
Country: US
--></g></svg>